# xmcd
#
# Track frame offsets: 
#        150
#        21006
#        38570
#        60525
#        81075
#        100890
#        119413
#        141519
#        160399
#        181221
#        202180
#        222089
#
# Disc length: 3272 seconds
#
# Revision: 0
# Processed by: cddbd v1.5.2PL0 Copyright (c) Steve Scherf et al.
# Submitted via: ExactAudioCopyFreeDBPlugin 1.0
#
DISCID=a70cc60c
DTITLE=คาราบาว - โฮ๊ะ
DYEAR=2009
DGENRE=Country
TTITLE0=เพลงโฮ๊ะ
TTITLE1=เมด อิน ไทยแลนด์ 52
TTITLE2=องค์ดำ
TTITLE3=ควายไทย
TTITLE4=เพื่อชีวิตติดล้อ
TTITLE5=หัวใจสองล้อ
TTITLE6=เขาพระจันทร์
TTITLE7=ทะเลอารมณ์
TTITLE8=ครูตึ๋ง
TTITLE9=จ้อนนอนเล่น
TTITLE10=Lonely Man Magic Moon
TTITLE11=ยังมีประเทศไทย
EXTD=
EXTT0=
EXTT1=
EXTT2=
EXTT3=
EXTT4=
EXTT5=
EXTT6=
EXTT7=
EXTT8=
EXTT9=
EXTT10=
EXTT11=
PLAYORDER=
